<svg width="12" height="12" fill="none" xmlns="http://www.w3.org/2000/svg"><path d="M6 0a6 6 0 1 1-2.71 11.355l-.09-.049-2.734.683A.374.374 0 0 1 0 11.658v-.062l.01-.062.683-2.733-.048-.09a5.962 5.962 0 0 1-.622-2.165l-.019-.287L0 6a6 6 0 0 1 6-6Zm.375 6.75h-2.25l-.068.006a.375.375 0 0 0 0 .738l.068.006h2.25l.067-.006a.375.375 0 0 0 0-.738l-.067-.006Zm1.5-2.25h-3.75l-.068.006a.375.375 0 0 0 0 .738l.068.006h3.75l.067-.006a.375.375 0 0 0 0-.738L7.875 4.5Z" fill="#1D201F"/><path d="M7.875 4.5h-3.75l-.068.006a.375.375 0 0 0 0 .738l.068.006h3.75l.067-.006a.375.375 0 0 0 0-.738L7.875 4.5ZM6.375 6.75h-2.25l-.068.006a.375.375 0 0 0 0 .738l.068.006h2.25l.067-.006a.375.375 0 0 0 0-.738l-.067-.006Z" fill="#1D201F"/></svg>