<svg width="24" height="24" fill="none" xmlns="http://www.w3.org/2000/svg"><path d="M12 7.192A4.8 4.8 0 0 0 7.193 12 4.8 4.8 0 0 0 12 16.807 4.8 4.8 0 0 0 16.807 12 4.8 4.8 0 0 0 12 7.191Zm0 7.932a3.13 3.13 0 0 1-3.124-3.125A3.13 3.13 0 0 1 12 8.875 3.13 3.13 0 0 1 15.124 12 3.13 3.13 0 0 1 12 15.124Zm5.004-9.249c-.621 0-1.123.502-1.123 1.123s.502 1.123 1.123 1.123a1.12 1.12 0 0 0 1.037-1.553 1.122 1.122 0 0 0-1.037-.693ZM21.37 12c0-1.293.012-2.575-.06-3.867-.073-1.5-.415-2.83-1.512-3.928-1.1-1.099-2.428-1.439-3.928-1.512-1.294-.072-2.576-.06-3.868-.06-1.293 0-2.575-.012-3.867.06-1.5.073-2.831.415-3.928 1.512-1.1 1.1-1.439 2.428-1.512 3.928-.072 1.294-.06 2.576-.06 3.867 0 1.292-.012 2.576.06 3.868.073 1.5.415 2.831 1.512 3.928 1.1 1.1 2.428 1.439 3.928 1.512 1.294.072 2.576.06 3.867.06 1.294 0 2.576.012 3.867-.06 1.5-.073 2.832-.415 3.929-1.512 1.099-1.1 1.439-2.428 1.511-3.928.075-1.292.061-2.574.061-3.868Zm-2.062 5.527A2.977 2.977 0 0 1 18.6 18.6c-.33.331-.647.537-1.073.708-1.233.49-4.16.38-5.527.38-1.366 0-4.296.11-5.529-.377a2.98 2.98 0 0 1-1.073-.708 2.999 2.999 0 0 1-.708-1.074c-.488-1.235-.378-4.162-.378-5.528 0-1.367-.11-4.297.378-5.53.17-.426.377-.745.708-1.073A3.03 3.03 0 0 1 6.47 4.69c1.233-.487 4.163-.377 5.529-.377 1.366 0 4.296-.11 5.529.377.427.171.745.378 1.073.708.33.33.537.647.708 1.074.488 1.232.378 4.162.378 5.528 0 1.367.11 4.294-.38 5.527Z" fill="#1D201F"/></svg>